<?xml version="1.0" encoding="UTF-8"?> <svg xmlns="http://www.w3.org/2000/svg" width="706" height="622" viewBox="0 0 706 622" fill="none"> <g clip-path="url(#clip0_173_10)"> <path d="M92.1204 473.091C73.1474 473.091 56.7285 480.024 42.8637 493.888C28.9988 507.753 22.0664 524.172 22.0664 543.145C22.0664 562.118 28.9988 578.537 42.8637 592.402C56.7285 606.267 73.1474 613.199 92.1204 613.199C111.093 613.199 127.512 606.267 141.377 592.402C155.242 578.537 162.174 562.118 162.174 543.145C162.174 524.172 155.242 507.753 141.377 493.888C127.512 480.024 111.093 473.091 92.1204 473.091Z" fill="#222222"></path> <path d="M555.382 613.5C585.301 613.5 611.206 608.027 633.098 597.081C654.99 585.406 671.774 569.352 683.45 548.919C694.395 528.487 699.868 504.771 699.868 477.771C699.868 445.662 692.571 419.392 677.977 398.96C662.652 378.527 643.314 362.108 619.963 349.703C596.612 337.298 572.166 327.081 546.625 319.054C520.355 310.298 495.544 302.271 472.193 294.973C448.841 286.946 429.868 277.825 415.274 267.608C399.949 257.392 392.287 243.892 392.287 227.108V159.243C392.287 128.595 397.031 105.243 406.517 89.1894C415.274 73.1353 427.314 62.5543 442.639 57.4461C457.963 51.6083 475.112 48.6894 494.085 48.6894C512.328 48.6894 532.031 51.2435 553.193 56.3515C573.625 61.4597 590.044 72.0407 602.449 88.0948C588.585 91.0137 576.544 98.311 566.328 109.987C556.112 121.662 551.004 136.622 551.004 154.865C551.004 173.108 556.841 187.703 568.517 198.649C580.193 208.865 595.152 213.973 613.395 213.973C634.558 213.973 650.247 207.406 660.463 194.27C669.949 180.406 674.693 165.081 674.693 148.298C674.693 129.325 669.949 114 660.463 102.325C650.977 90.6489 638.936 79.7029 624.341 69.4867C607.558 57.811 586.031 47.9597 559.76 39.9326C532.76 31.1759 502.476 26.7975 468.909 26.7975C438.99 26.7975 413.449 30.4461 392.287 37.7434C371.125 44.311 353.612 54.1624 339.747 67.2975C320.774 84.811 308.368 106.338 302.531 131.879C296.693 156.689 293.774 186.608 293.774 221.635V525.933C293.774 544.176 291.22 557.311 286.112 565.338C280.274 573.365 271.517 577.379 259.841 577.379C251.814 577.379 244.152 575.554 236.855 571.906C229.558 568.257 220.801 562.419 210.585 554.392L198.544 573C213.868 584.676 228.463 594.527 242.328 602.554C256.193 609.852 274.801 613.5 298.152 613.5C319.314 613.5 336.828 609.852 350.693 602.554C364.558 595.257 375.139 584.676 382.436 570.811C389.003 556.217 392.287 537.973 392.287 516.081C411.99 548.919 435.706 573.365 463.436 589.419C490.436 605.473 521.085 613.5 555.382 613.5ZM515.976 569.717C491.895 569.717 469.639 562.784 449.206 548.919C428.044 535.054 409.071 514.257 392.287 486.527V271.987C401.044 284.392 413.814 294.973 430.598 303.73C447.382 311.757 465.625 320.149 485.328 328.906C505.031 336.933 524.004 346.784 542.247 358.46C559.76 369.406 574.355 384 586.031 402.244C597.706 420.487 603.544 444.203 603.544 473.392C603.544 502.581 595.882 525.933 580.558 543.446C564.504 560.96 542.977 569.717 515.976 569.717Z" fill="#222222"></path> </g> <defs> <clipPath id="clip0_173_10"> <rect width="706" height="622" fill="white"></rect> </clipPath> </defs> </svg> 