<?xml version="1.0" encoding="UTF-8"?> <svg xmlns="http://www.w3.org/2000/svg" width="450" height="450" viewBox="0 0 450 450" fill="none"> <circle cx="225" cy="225" r="225" fill="#222222"></circle> <path d="M138.438 221.131C138.347 220.324 137.972 219.699 137.312 219.256C136.653 218.807 135.824 218.582 134.824 218.582C134.108 218.582 133.489 218.696 132.966 218.923C132.443 219.145 132.037 219.452 131.747 219.844C131.463 220.23 131.321 220.67 131.321 221.165C131.321 221.58 131.418 221.937 131.611 222.239C131.81 222.54 132.068 222.793 132.386 222.997C132.71 223.196 133.057 223.364 133.426 223.5C133.795 223.631 134.151 223.739 134.491 223.824L136.196 224.267C136.753 224.403 137.324 224.588 137.909 224.821C138.494 225.054 139.037 225.361 139.537 225.741C140.037 226.122 140.44 226.594 140.747 227.156C141.06 227.719 141.216 228.392 141.216 229.176C141.216 230.165 140.96 231.043 140.449 231.81C139.943 232.577 139.207 233.182 138.241 233.625C137.281 234.068 136.119 234.29 134.756 234.29C133.449 234.29 132.318 234.082 131.364 233.668C130.409 233.253 129.662 232.665 129.122 231.903C128.582 231.136 128.284 230.227 128.227 229.176H130.869C130.92 229.807 131.125 230.332 131.483 230.753C131.847 231.168 132.31 231.477 132.872 231.682C133.44 231.881 134.062 231.98 134.739 231.98C135.483 231.98 136.145 231.864 136.724 231.631C137.31 231.392 137.77 231.062 138.105 230.642C138.44 230.216 138.608 229.719 138.608 229.151C138.608 228.634 138.46 228.21 138.165 227.881C137.875 227.551 137.48 227.278 136.98 227.062C136.486 226.847 135.926 226.656 135.301 226.491L133.239 225.929C131.841 225.548 130.733 224.989 129.915 224.25C129.102 223.511 128.696 222.534 128.696 221.318C128.696 220.312 128.969 219.435 129.514 218.685C130.06 217.935 130.798 217.352 131.73 216.938C132.662 216.517 133.713 216.307 134.884 216.307C136.065 216.307 137.108 216.514 138.011 216.929C138.92 217.344 139.636 217.915 140.159 218.642C140.682 219.364 140.955 220.193 140.977 221.131H138.438ZM144.497 234H141.701L147.983 216.545H151.025L157.306 234H154.511L149.576 219.716H149.44L144.497 234ZM144.965 227.165H154.034V229.381H144.965V227.165ZM155.499 216.545H158.491L163.05 224.48H163.238L167.797 216.545H170.789L164.457 227.148V234H161.832V227.148L155.499 216.545ZM177.227 234V216.545H179.861V224.131H188.562V216.545H191.204V234H188.562V226.389H179.861V234H177.227ZM193.839 234V216.545H204.783V218.812H196.473V224.131H204.212V226.389H196.473V231.733H204.885V234H193.839ZM207.1 234V216.545H209.734V231.733H217.643V234H207.1ZM219.447 234V216.545H222.081V231.733H229.99V234H219.447ZM246.276 225.273C246.276 227.136 245.936 228.739 245.254 230.08C244.572 231.415 243.637 232.443 242.45 233.165C241.268 233.881 239.924 234.239 238.418 234.239C236.907 234.239 235.558 233.881 234.37 233.165C233.188 232.443 232.257 231.412 231.575 230.071C230.893 228.73 230.552 227.131 230.552 225.273C230.552 223.409 230.893 221.81 231.575 220.474C232.257 219.134 233.188 218.105 234.37 217.389C235.558 216.668 236.907 216.307 238.418 216.307C239.924 216.307 241.268 216.668 242.45 217.389C243.637 218.105 244.572 219.134 245.254 220.474C245.936 221.81 246.276 223.409 246.276 225.273ZM243.668 225.273C243.668 223.852 243.438 222.656 242.978 221.685C242.524 220.707 241.899 219.969 241.103 219.469C240.313 218.963 239.418 218.71 238.418 218.71C237.413 218.71 236.515 218.963 235.725 219.469C234.936 219.969 234.311 220.707 233.85 221.685C233.396 222.656 233.168 223.852 233.168 225.273C233.168 226.693 233.396 227.892 233.85 228.869C234.311 229.841 234.936 230.58 235.725 231.085C236.515 231.585 237.413 231.835 238.418 231.835C239.418 231.835 240.313 231.585 241.103 231.085C241.899 230.58 242.524 229.841 242.978 228.869C243.438 227.892 243.668 226.693 243.668 225.273ZM252.651 218.812V216.545H266.159V218.812H260.713V234H258.088V218.812H252.651ZM282.356 225.273C282.356 227.136 282.015 228.739 281.333 230.08C280.652 231.415 279.717 232.443 278.529 233.165C277.348 233.881 276.004 234.239 274.498 234.239C272.987 234.239 271.637 233.881 270.45 233.165C269.268 232.443 268.336 231.412 267.654 230.071C266.973 228.73 266.632 227.131 266.632 225.273C266.632 223.409 266.973 221.81 267.654 220.474C268.336 219.134 269.268 218.105 270.45 217.389C271.637 216.668 272.987 216.307 274.498 216.307C276.004 216.307 277.348 216.668 278.529 217.389C279.717 218.105 280.652 219.134 281.333 220.474C282.015 221.81 282.356 223.409 282.356 225.273ZM279.748 225.273C279.748 223.852 279.518 222.656 279.058 221.685C278.603 220.707 277.978 219.969 277.183 219.469C276.393 218.963 275.498 218.71 274.498 218.71C273.492 218.71 272.595 218.963 271.805 219.469C271.015 219.969 270.39 220.707 269.93 221.685C269.475 222.656 269.248 223.852 269.248 225.273C269.248 226.693 269.475 227.892 269.93 228.869C270.39 229.841 271.015 230.58 271.805 231.085C272.595 231.585 273.492 231.835 274.498 231.835C275.498 231.835 276.393 231.585 277.183 231.085C277.978 230.58 278.603 229.841 279.058 228.869C279.518 227.892 279.748 226.693 279.748 225.273ZM289.591 216.545H292.787L298.344 230.114H298.548L304.105 216.545H307.301V234H304.796V221.369H304.634L299.486 233.974H297.406L292.259 221.361H292.097V234H289.591V216.545ZM309.93 234V216.545H320.873V218.812H312.564V224.131H320.302V226.389H312.564V231.733H320.976V234H309.93Z" fill="white"></path> </svg> 