<?xml version="1.0" encoding="UTF-8"?> <svg xmlns="http://www.w3.org/2000/svg" width="829" height="458" viewBox="0 0 829 458" fill="none"> <path d="M206.445 235.218L31.4453 312.278V261.94L151.261 213.84L149.645 216.45V210.236L151.261 212.846L31.4453 164.746V114.408L206.445 191.468V235.218ZM352.61 342.48C334.049 342.48 317.519 339.29 303.018 332.91C288.601 326.447 277.208 317.581 268.839 306.312C260.553 294.96 256.286 281.868 256.037 267.036H310.227C310.559 273.251 312.589 278.719 316.317 283.442C320.129 288.083 325.183 291.687 331.481 294.256C337.778 296.824 344.863 298.109 352.734 298.109C360.938 298.109 368.188 296.659 374.485 293.759C380.782 290.858 385.713 286.84 389.276 281.702C392.839 276.565 394.62 270.641 394.62 263.929C394.62 257.134 392.714 251.127 388.903 245.907C385.174 240.604 379.788 236.461 372.745 233.478C365.785 230.495 357.499 229.004 347.887 229.004H324.148V189.479H347.887C356.007 189.479 363.175 188.071 369.389 185.254C375.687 182.436 380.575 178.542 384.055 173.57C387.536 168.516 389.276 162.633 389.276 155.921C389.276 149.541 387.743 143.948 384.677 139.142C381.694 134.253 377.468 130.442 371.999 127.707C366.613 124.973 360.316 123.606 353.107 123.606C345.816 123.606 339.145 124.932 333.097 127.583C327.048 130.152 322.201 133.839 318.555 138.645C314.909 143.451 312.962 149.085 312.713 155.548H261.133C261.381 140.882 265.566 127.956 273.686 116.77C281.806 105.584 292.744 96.8421 306.499 90.5447C320.336 84.1645 335.955 80.9744 353.356 80.9744C370.922 80.9744 386.293 84.1645 399.467 90.5447C412.642 96.9249 422.875 105.542 430.167 116.397C437.541 127.169 441.187 139.266 441.104 152.69C441.187 166.942 436.754 178.832 427.805 188.361C418.939 197.89 407.38 203.938 393.129 206.507V208.496C411.855 210.899 426.107 217.403 435.884 228.009C445.745 238.532 450.633 251.707 450.55 267.533C450.633 282.034 446.449 294.919 437.997 306.188C429.628 317.456 418.069 326.322 403.32 332.786C388.571 339.249 371.668 342.48 352.61 342.48ZM589.04 344.593C567.662 344.51 549.268 339.249 533.856 328.808C518.527 318.368 506.719 303.246 498.433 283.442C490.23 263.639 486.17 239.817 486.253 211.976C486.253 184.218 490.354 160.561 498.557 141.006C506.843 121.451 518.651 106.578 533.98 96.3864C549.392 86.1117 567.745 80.9744 589.04 80.9744C610.335 80.9744 628.647 86.1117 643.976 96.3864C659.388 106.661 671.237 121.576 679.523 141.131C687.809 160.603 691.911 184.218 691.828 211.976C691.828 239.9 687.685 263.763 679.399 283.567C671.196 303.37 659.43 318.492 644.101 328.933C628.772 339.373 610.418 344.593 589.04 344.593ZM589.04 299.973C603.624 299.973 615.265 292.64 623.966 277.974C632.666 263.308 636.975 241.308 636.892 211.976C636.892 192.67 634.903 176.595 630.926 163.751C627.032 150.908 621.48 141.255 614.271 134.792C607.145 128.329 598.735 125.097 589.04 125.097C574.54 125.097 562.939 132.348 554.239 146.848C545.539 161.348 541.147 183.058 541.064 211.976C541.064 231.531 543.012 247.854 546.906 260.946C550.883 273.955 556.476 283.732 563.685 290.278C570.894 296.741 579.346 299.973 589.04 299.973Z" fill="black"></path> <path d="M31.6257 436V371.273H57.1626C62.072 371.273 66.2544 372.21 69.7099 374.086C73.1654 375.94 75.7991 378.521 77.6112 381.829C79.4442 385.116 80.3608 388.908 80.3608 393.207C80.3608 397.505 79.4337 401.298 77.5795 404.585C75.7254 407.871 73.0389 410.431 69.5202 412.265C66.0226 414.098 61.7875 415.014 56.815 415.014H40.5384V404.047H54.6026C57.2364 404.047 59.4066 403.594 61.1133 402.688C62.841 401.761 64.1263 400.486 64.9691 398.864C65.833 397.221 66.2649 395.335 66.2649 393.207C66.2649 391.058 65.833 389.182 64.9691 387.581C64.1263 385.959 62.841 384.705 61.1133 383.82C59.3855 382.914 57.1942 382.461 54.5394 382.461H45.3107V436H31.6257ZM129.23 371.273H142.915V413.308C142.915 418.027 141.788 422.157 139.533 425.697C137.3 429.237 134.171 431.997 130.147 433.977C126.122 435.937 121.434 436.917 116.082 436.917C110.71 436.917 106.011 435.937 101.987 433.977C97.9622 431.997 94.8333 429.237 92.5999 425.697C90.3664 422.157 89.2497 418.027 89.2497 413.308V371.273H102.935V412.138C102.935 414.603 103.472 416.795 104.547 418.712C105.642 420.629 107.18 422.136 109.161 423.232C111.142 424.327 113.449 424.875 116.082 424.875C118.737 424.875 121.044 424.327 123.004 423.232C124.985 422.136 126.512 420.629 127.587 418.712C128.682 416.795 129.23 414.603 129.23 412.138V371.273ZM154.175 436V371.273H180.091C184.853 371.273 188.824 371.979 192.006 373.39C195.187 374.802 197.579 376.761 199.18 379.269C200.782 381.755 201.582 384.621 201.582 387.865C201.582 390.394 201.077 392.617 200.065 394.534C199.054 396.43 197.663 397.99 195.893 399.212C194.144 400.413 192.143 401.266 189.888 401.772V402.404C192.354 402.509 194.661 403.204 196.81 404.49C198.98 405.775 200.739 407.576 202.088 409.894C203.436 412.191 204.111 414.93 204.111 418.112C204.111 421.546 203.257 424.612 201.551 427.309C199.865 429.984 197.368 432.102 194.06 433.661C190.752 435.22 186.675 436 181.829 436H154.175ZM167.86 424.812H179.016C182.83 424.812 185.611 424.085 187.36 422.631C189.109 421.156 189.983 419.197 189.983 416.752C189.983 414.962 189.551 413.381 188.687 412.012C187.823 410.642 186.591 409.568 184.99 408.788C183.409 408.008 181.523 407.619 179.332 407.619H167.86V424.812ZM167.86 398.358H178.005C179.88 398.358 181.545 398.032 182.998 397.379C184.473 396.704 185.632 395.756 186.475 394.534C187.339 393.312 187.771 391.848 187.771 390.141C187.771 387.802 186.939 385.916 185.274 384.484C183.631 383.051 181.292 382.335 178.258 382.335H167.86V398.358ZM213.015 436V371.273H226.7V424.717H254.45V436H213.015ZM277.197 371.273V436H263.512V371.273H277.197ZM345.567 393.934H331.724C331.471 392.143 330.955 390.552 330.176 389.161C329.396 387.75 328.395 386.549 327.173 385.558C325.951 384.568 324.539 383.809 322.938 383.283C321.358 382.756 319.64 382.493 317.786 382.493C314.436 382.493 311.518 383.325 309.032 384.989C306.545 386.633 304.618 389.035 303.248 392.195C301.878 395.335 301.194 399.148 301.194 403.636C301.194 408.251 301.878 412.128 303.248 415.267C304.639 418.406 306.577 420.777 309.063 422.378C311.55 423.98 314.426 424.78 317.691 424.78C319.525 424.78 321.221 424.538 322.78 424.053C324.36 423.569 325.761 422.863 326.983 421.936C328.205 420.988 329.217 419.839 330.017 418.491C330.839 417.142 331.408 415.604 331.724 413.876L345.567 413.94C345.209 416.911 344.314 419.776 342.881 422.536C341.469 425.275 339.562 427.73 337.16 429.9C334.779 432.049 331.935 433.756 328.627 435.02C325.34 436.263 321.621 436.885 317.47 436.885C311.697 436.885 306.535 435.579 301.984 432.966C297.454 430.353 293.872 426.571 291.238 421.62C288.625 416.668 287.319 410.674 287.319 403.636C287.319 396.578 288.646 390.573 291.301 385.621C293.956 380.67 297.559 376.898 302.11 374.307C306.661 371.694 311.781 370.388 317.47 370.388C321.221 370.388 324.697 370.915 327.9 371.968C331.124 373.022 333.979 374.56 336.465 376.582C338.951 378.584 340.974 381.039 342.533 383.946C344.113 386.854 345.125 390.183 345.567 393.934ZM365.32 436H350.656L373 371.273H390.636L412.949 436H398.285L382.071 386.064H381.565L365.32 436ZM364.404 410.558H399.043V421.24H364.404V410.558ZM410.366 382.556V371.273H463.525V382.556H443.709V436H430.182V382.556H410.366ZM485.965 371.273V436H472.28V371.273H485.965ZM556.705 403.636C556.705 410.695 555.367 416.7 552.691 421.651C550.036 426.603 546.412 430.385 541.819 432.998C537.247 435.589 532.106 436.885 526.396 436.885C520.644 436.885 515.482 435.579 510.909 432.966C506.337 430.353 502.724 426.571 500.069 421.62C497.414 416.668 496.087 410.674 496.087 403.636C496.087 396.578 497.414 390.573 500.069 385.621C502.724 380.67 506.337 376.898 510.909 374.307C515.482 371.694 520.644 370.388 526.396 370.388C532.106 370.388 537.247 371.694 541.819 374.307C546.412 376.898 550.036 380.67 552.691 385.621C555.367 390.573 556.705 396.578 556.705 403.636ZM542.831 403.636C542.831 399.064 542.146 395.208 540.776 392.069C539.428 388.929 537.521 386.549 535.056 384.926C532.59 383.304 529.704 382.493 526.396 382.493C523.088 382.493 520.201 383.304 517.736 384.926C515.271 386.549 513.353 388.929 511.984 392.069C510.635 395.208 509.961 399.064 509.961 403.636C509.961 408.209 510.635 412.064 511.984 415.204C513.353 418.343 515.271 420.724 517.736 422.347C520.201 423.969 523.088 424.78 526.396 424.78C529.704 424.78 532.59 423.969 535.056 422.347C537.521 420.724 539.428 418.343 540.776 415.204C542.146 412.064 542.831 408.209 542.831 403.636ZM620.982 371.273V436H609.162L581.002 395.261H580.528V436H566.843V371.273H578.852L606.791 411.98H607.36V371.273H620.982ZM667.402 389.888C667.149 387.339 666.064 385.358 664.147 383.946C662.229 382.535 659.627 381.829 656.34 381.829C654.107 381.829 652.221 382.145 650.683 382.777C649.145 383.388 647.965 384.241 647.143 385.337C646.343 386.433 645.942 387.676 645.942 389.066C645.9 390.225 646.142 391.237 646.669 392.1C647.217 392.964 647.965 393.712 648.913 394.344C649.861 394.955 650.957 395.493 652.2 395.956C653.443 396.399 654.771 396.778 656.182 397.094L661.998 398.485C664.821 399.117 667.413 399.96 669.772 401.013C672.132 402.067 674.176 403.362 675.904 404.901C677.632 406.439 678.97 408.251 679.918 410.337C680.887 412.423 681.382 414.814 681.403 417.511C681.382 421.472 680.371 424.907 678.369 427.814C676.388 430.701 673.523 432.945 669.772 434.546C666.043 436.126 661.545 436.917 656.277 436.917C651.052 436.917 646.501 436.116 642.624 434.515C638.768 432.913 635.755 430.543 633.585 427.403C631.435 424.243 630.308 420.334 630.203 415.678H643.445C643.593 417.848 644.214 419.66 645.31 421.114C646.427 422.547 647.912 423.632 649.766 424.369C651.642 425.086 653.759 425.444 656.119 425.444C658.437 425.444 660.449 425.107 662.156 424.433C663.883 423.758 665.221 422.821 666.169 421.62C667.118 420.419 667.592 419.039 667.592 417.479C667.592 416.026 667.16 414.804 666.296 413.813C665.453 412.823 664.21 411.98 662.566 411.285C660.944 410.589 658.953 409.957 656.593 409.388L649.545 407.619C644.088 406.291 639.779 404.216 636.619 401.392C633.458 398.569 631.888 394.766 631.91 389.983C631.888 386.064 632.931 382.64 635.038 379.711C637.167 376.783 640.085 374.496 643.793 372.853C647.501 371.21 651.715 370.388 656.435 370.388C661.239 370.388 665.432 371.21 669.014 372.853C672.617 374.496 675.419 376.783 677.421 379.711C679.423 382.64 680.455 386.032 680.518 389.888H667.402Z" fill="black"></path> </svg> 