<?xml version="1.0" encoding="UTF-8"?> <svg xmlns="http://www.w3.org/2000/svg" width="644" height="510" viewBox="0 0 644 510" fill="none"> <path d="M206.445 235.218L31.4453 312.278V261.94L151.261 213.84L149.645 216.45V210.236L151.261 212.846L31.4453 164.746V114.408L206.445 191.468V235.218ZM365.765 84.4545V339H311.947V135.538H310.456L252.164 172.079V124.352L315.179 84.4545H365.765ZM522.568 344.593C501.19 344.51 482.795 339.249 467.383 328.808C452.054 318.368 440.246 303.246 431.96 283.442C423.757 263.639 419.697 239.817 419.78 211.976C419.78 184.218 423.882 160.561 432.085 141.006C440.371 121.451 452.178 106.578 467.507 96.3864C482.919 86.1117 501.273 80.9744 522.568 80.9744C543.863 80.9744 562.175 86.1117 577.504 96.3864C592.916 106.661 604.765 121.576 613.051 141.131C621.337 160.603 625.438 184.218 625.355 211.976C625.355 239.9 621.212 263.763 612.926 283.567C604.723 303.37 592.957 318.492 577.628 328.933C562.299 339.373 543.945 344.593 522.568 344.593ZM522.568 299.973C537.151 299.973 548.793 292.64 557.493 277.974C566.193 263.308 570.502 241.308 570.419 211.976C570.419 192.67 568.431 176.595 564.453 163.751C560.559 150.908 555.007 141.255 547.798 134.792C540.673 128.329 532.262 125.097 522.568 125.097C508.067 125.097 496.467 132.348 487.767 146.848C479.066 161.348 474.675 183.058 474.592 211.976C474.592 231.531 476.539 247.854 480.433 260.946C484.411 273.955 490.004 283.732 497.213 290.278C504.421 296.741 512.873 299.973 522.568 299.973Z" fill="black"></path> <path d="M54.0198 478H32.2698L65.4104 382H91.5667L124.66 478H102.91L78.8635 403.937H78.1135L54.0198 478ZM52.6604 440.266H104.035V456.109H52.6604V440.266ZM150.796 478L123.328 382H145.5L161.39 448.703H162.187L179.718 382H198.703L216.187 448.844H217.031L232.921 382H255.093L227.625 478H207.843L189.562 415.234H188.812L170.578 478H150.796ZM275.476 478H253.726L286.866 382H313.022L346.116 478H324.366L300.319 403.937H299.569L275.476 478ZM274.116 440.266H325.491V456.109H274.116V440.266ZM360.311 478V382H398.186C405.436 382 411.623 383.297 416.748 385.891C421.905 388.453 425.827 392.094 428.514 396.813C431.233 401.5 432.592 407.016 432.592 413.359C432.592 419.734 431.217 425.219 428.467 429.812C425.717 434.375 421.733 437.875 416.514 440.312C411.327 442.75 405.045 443.969 397.67 443.969H372.311V427.656H394.389C398.264 427.656 401.483 427.125 404.045 426.063C406.608 425 408.514 423.406 409.764 421.281C411.045 419.156 411.686 416.516 411.686 413.359C411.686 410.172 411.045 407.484 409.764 405.297C408.514 403.109 406.592 401.453 403.998 400.328C401.436 399.172 398.202 398.594 394.295 398.594H380.608V478H360.311ZM412.155 434.313L436.014 478H413.608L390.264 434.313H412.155ZM483.607 478H449.576V382H483.888C493.545 382 501.857 383.922 508.826 387.766C515.795 391.578 521.154 397.062 524.904 404.219C528.685 411.375 530.576 419.937 530.576 429.906C530.576 439.906 528.685 448.5 524.904 455.687C521.154 462.875 515.763 468.391 508.732 472.234C501.732 476.078 493.357 478 483.607 478ZM469.873 460.609H482.763C488.763 460.609 493.81 459.547 497.904 457.422C502.029 455.266 505.123 451.937 507.185 447.437C509.279 442.906 510.326 437.063 510.326 429.906C510.326 422.812 509.279 417.016 507.185 412.516C505.123 408.016 502.045 404.703 497.951 402.578C493.857 400.453 488.81 399.391 482.81 399.391H469.873V460.609ZM600.329 409.609C599.954 405.828 598.345 402.891 595.501 400.797C592.657 398.703 588.798 397.656 583.923 397.656C580.61 397.656 577.814 398.125 575.532 399.062C573.251 399.969 571.501 401.234 570.282 402.859C569.095 404.484 568.501 406.328 568.501 408.391C568.439 410.109 568.798 411.609 569.579 412.891C570.392 414.172 571.501 415.281 572.907 416.219C574.314 417.125 575.939 417.922 577.782 418.609C579.626 419.266 581.595 419.828 583.689 420.297L592.314 422.359C596.501 423.297 600.345 424.547 603.845 426.109C607.345 427.672 610.376 429.594 612.939 431.875C615.501 434.156 617.485 436.844 618.892 439.937C620.329 443.031 621.064 446.578 621.095 450.578C621.064 456.453 619.564 461.547 616.595 465.859C613.657 470.141 609.407 473.469 603.845 475.844C598.314 478.187 591.642 479.359 583.829 479.359C576.079 479.359 569.329 478.172 563.579 475.797C557.86 473.422 553.392 469.906 550.173 465.25C546.985 460.562 545.314 454.766 545.157 447.859H564.798C565.017 451.078 565.939 453.766 567.564 455.922C569.22 458.047 571.423 459.656 574.173 460.75C576.954 461.812 580.095 462.344 583.595 462.344C587.032 462.344 590.017 461.844 592.548 460.844C595.11 459.844 597.095 458.453 598.501 456.672C599.907 454.891 600.61 452.844 600.61 450.531C600.61 448.375 599.97 446.562 598.689 445.094C597.439 443.625 595.595 442.375 593.157 441.344C590.751 440.312 587.798 439.375 584.298 438.531L573.845 435.906C565.751 433.937 559.36 430.859 554.673 426.672C549.985 422.484 547.657 416.844 547.689 409.75C547.657 403.937 549.204 398.859 552.329 394.516C555.485 390.172 559.814 386.781 565.314 384.344C570.814 381.906 577.064 380.687 584.064 380.687C591.189 380.687 597.407 381.906 602.72 384.344C608.064 386.781 612.22 390.172 615.189 394.516C618.157 398.859 619.689 403.891 619.782 409.609H600.329Z" fill="black"></path> </svg> 